<svg width="22" height="26" viewBox="0 0 22 26" fill="none" xmlns="http://www.w3.org/2000/svg">
<path d="M12.5017 0.650944C12.1033 0.253001 11.5632 0.02948 11.0001 0.02948C10.4369 0.02948 9.89684 0.253001 9.4984 0.650944L1.48148 8.66361C1.08284 9.06225 0.858887 9.60293 0.858887 10.1667C0.858887 10.7305 1.08284 11.2711 1.48148 11.6698C1.88013 12.0684 2.4208 12.2924 2.98457 12.2924C3.54833 12.2924 4.08901 12.0684 4.48765 11.6698L8.87507 7.28378V23.625C8.87507 24.1886 9.09895 24.7291 9.49747 25.1276C9.89598 25.5261 10.4365 25.75 11.0001 25.75C11.5637 25.75 12.1042 25.5261 12.5027 25.1276C12.9012 24.7291 13.1251 24.1886 13.1251 23.625V7.28378L17.5111 11.6698C17.7085 11.8672 17.9428 12.0237 18.2007 12.1306C18.4586 12.2374 18.735 12.2924 19.0142 12.2924C19.2933 12.2924 19.5697 12.2374 19.8276 12.1306C20.0855 12.0237 20.3198 11.8672 20.5172 11.6698C20.7146 11.4724 20.8712 11.2381 20.978 10.9802C21.0848 10.7223 21.1398 10.4458 21.1398 10.1667C21.1398 9.88755 21.0848 9.61113 20.978 9.35323C20.8712 9.09533 20.7146 8.861 20.5172 8.66361L12.5017 0.650944Z" fill="#CE0202"/>
</svg>
