<svg width="24" height="24" viewBox="0 0 24 24" fill="none" xmlns="http://www.w3.org/2000/svg">
  <path d="M22.69 20.4349C22.9894 20.7343 23.1576 21.1404 23.1576 21.5638C23.1576 21.9872 22.9894 22.3933 22.69 22.6927C22.3906 22.9921 21.9845 23.1603 21.5611 23.1603C21.1377 23.1603 20.7316 22.9921 20.4322 22.6927L11.9999 14.2578L3.56502 22.6901C3.26562 22.9895 2.85954 23.1577 2.43611 23.1577C2.01269 23.1577 1.60661 22.9895 1.30721 22.6901C1.0078 22.3906 0.8396 21.9846 0.8396 21.5611C0.8396 21.1377 1.0078 20.7316 1.30721 20.4322L9.74213 12L1.30986 3.56505C1.01046 3.26565 0.842256 2.85957 0.842256 2.43615C0.842256 2.01272 1.01046 1.60664 1.30986 1.30724C1.60927 1.00783 2.01535 0.839631 2.43877 0.839631C2.86219 0.839631 3.26827 1.00783 3.56768 1.30724L11.9999 9.74216L20.4349 1.30591C20.7343 1.00651 21.1403 0.838303 21.5638 0.838303C21.9872 0.838303 22.3933 1.00651 22.6927 1.30591C22.9921 1.60532 23.1603 2.01139 23.1603 2.43482C23.1603 2.85824 22.9921 3.26432 22.6927 3.56372L14.2578 12L22.69 20.4349Z" fill="#CE0202"/>
</svg>
