<svg width="27" height="27" viewBox="0 0 27 27" fill="none" xmlns="http://www.w3.org/2000/svg">
<path fill-rule="evenodd" clip-rule="evenodd" d="M0 13.5C-2.64174e-08 11.7272 0.349188 9.97167 1.02763 8.33377C1.70606 6.69588 2.70047 5.20765 3.95406 3.95406C5.20765 2.70047 6.69588 1.70607 8.33377 1.02763C9.97167 0.349188 11.7272 0 13.5 0C15.2728 0 17.0283 0.349188 18.6662 1.02763C20.3041 1.70607 21.7923 2.70047 23.0459 3.95406C24.2995 5.20765 25.2939 6.69588 25.9724 8.33377C26.6508 9.97167 27 11.7272 27 13.5C27 17.0804 25.5777 20.5142 23.0459 23.0459C20.5142 25.5777 17.0804 27 13.5 27C9.91958 27 6.4858 25.5777 3.95406 23.0459C1.42232 20.5142 5.33525e-08 17.0804 0 13.5ZM3.105 15C3.46621 17.4993 4.71581 19.7848 6.6249 21.4378C8.53398 23.0908 10.9747 24.0007 13.5 24.0007C16.0253 24.0007 18.466 23.0908 20.3751 21.4378C22.2842 19.7848 23.5338 17.4993 23.895 15H17.745C17.4351 15.8783 16.8604 16.6388 16.1001 17.1768C15.3398 17.7148 14.4314 18.0037 13.5 18.0037C12.5686 18.0037 11.6602 17.7148 10.8999 17.1768C10.1396 16.6388 9.5649 15.8783 9.255 15H3.105ZM23.895 12C23.5361 9.49891 22.2874 7.21109 20.3781 5.5562C18.4687 3.9013 16.0267 2.9903 13.5 2.9903C10.9733 2.9903 8.53129 3.9013 6.62194 5.5562C4.7126 7.21109 3.46394 9.49891 3.105 12H9.255C9.5649 11.1217 10.1396 10.3611 10.8999 9.82318C11.6602 9.28522 12.5686 8.99632 13.5 8.99632C14.4314 8.99632 15.3398 9.28522 16.1001 9.82318C16.8604 10.3611 17.4351 11.1217 17.745 12H23.895ZM13.5 15C13.8978 15 14.2794 14.842 14.5607 14.5607C14.842 14.2794 15 13.8978 15 13.5C15 13.1022 14.842 12.7206 14.5607 12.4393C14.2794 12.158 13.8978 12 13.5 12C13.1022 12 12.7206 12.158 12.4393 12.4393C12.158 12.7206 12 13.1022 12 13.5C12 13.8978 12.158 14.2794 12.4393 14.5607C12.7206 14.842 13.1022 15 13.5 15Z" fill="white"/>
</svg>
